<svg width="19" height="19" fill="none" xmlns="http://www.w3.org/2000/svg"><path d="M15.572 18.985h-.941c-4.129-.488-7.157-2.408-9.359-4.864C3.062 11.66 1.318 8.49202.977997 4.22802v-1.144c.078003-.774.459003-1.304.898003-1.757.549-.561 1.374-1.283 2.126-1.308.554-.018 1.5.38 1.879.899.329.446.504 1.339.656 2.003.154.671.505 1.643.408 2.289-.148 1.007-1.487 1.434-1.879 2.166C6.373 10.511 8.509 12.815 11.359 14.407c.715-.392 1.346-1.572 2.332-1.595.359-.009.818.178 1.184.286.402.121.75.275 1.104.408.596.224 1.648.521 2.004 1.021.365.513.57 1.356.49 1.879-.164 1.041-1.879 2.197-2.901 2.579z" fill="#B7BFC8"/></svg>