<svg width="14" height="12" fill="none" xmlns="http://www.w3.org/2000/svg"><path d="M2 7.99999V12h4V7.99999h2V12h4V7.99999l-5-4.484-5 4.484z" fill="#C1C6CE"/><path d="M13.831 6.365L12 4.751V0H9.99998v2.987L7.33198.635c-.02-.017-.043-.023-.064-.037a.465481.465481 0 00-.08-.047.551401.551401 0 00-.095-.024c-.031-.006-.061-.012-.093-.012-.031 0-.061.006-.092.012a.459969.459969 0 00-.095.025c-.028.011-.053.029-.08.046-.021.014-.045.02-.064.037L.170976 6.365c-.154736.13791-.208571.35687-.135429.5508.073143.19394.25816.32282.465429.3242a.496982.496982 0 00.331-.125L6.99998 1.677 13.169 7.115c.2088.16413.5094.13678.6852-.06235.1757-.19913.1656-.50082-.0232-.68765z" fill="#C1C6CE"/></svg>