<svg width="21" height="21" fill="none" xmlns="http://www.w3.org/2000/svg"><path d="M13.273 10.5l7.422-7.42201c.389-.389.389-1.025 0-1.414L19.336.304995c-.389-.389-1.025-.389-1.414 0L10.5 7.72699 3.07799.304995c-.389-.389-1.025-.389-1.414 0L.304995 1.66399c-.389.389-.389 1.025 0 1.414L7.72699 10.5.305995 17.922c-.389.389-.389 1.025 0 1.414l1.358995 1.359c.389.389 1.025.389 1.414 0l7.42201-7.422 7.422 7.422c.389.389 1.025.389 1.414 0l1.359-1.359c.389-.389.389-1.025 0-1.414L13.273 10.5z" fill="#EE3643"/></svg>