<svg width="66" height="66" fill="none" xmlns="http://www.w3.org/2000/svg"><path d="M33 66c18.2254 0 33-14.7746 33-33S51.2254 0 33 0 0 14.7746 0 33s14.7746 33 33 33z" fill="#63A63E"/><path d="M49.641 21.066c-.3912-.3887-1.0229-.3887-1.414 0L29.788 39.504c-.3912.3888-1.0229.3888-1.414 0l-8.14-8.139c-.3912-.3887-1.0229-.3887-1.414 0L15.285 34.9c-.3888.3912-.3888 1.0228 0 1.414l13.089 13.09c.3911.3888 1.0228.3888 1.414 0l3.536-3.536 1.414-1.414 18.438-18.438c.3887-.3912.3887-1.0228 0-1.414l-3.535-3.536z" fill="#fff"/></svg>